# xmcd
#
# Track frame offsets:
# 150
# 10134
# 41404
# 82808
# 90686
# 129243
# 183403
# 190226
# 242381
# 269186
# 296704
#
# Disc length: 4045 seconds
#
#
# Revision: 0
# Processed by: cddbd v1.5.2PL0 Copyright (c) Steve Scherf et al.
# Submitted via: FreeRIP 2.951 
#
DISCID=8e0fcb0b
DTITLE=Mokranjac - Strasna Sedmica
DYEAR=1900
DGENRE=A Cappella
TTITLE0=Pokajanija
TTITLE1=Da Ispravitsja
TTITLE2=Akatist
TTITLE3=Postavisa Tridesjat
TTITLE4=O Kako Bezekonoje
TTITLE5=Tebe Odjejuscagosja
TTITLE6=Blagoobraznij Josif
TTITLE7=Prva Statija
TTITLE8=Druga Statija
TTITLE9=Treca Statija
TTITLE10=Voskresni, Boze
EXTD=
EXTT0=
EXTT1=
EXTT2=
EXTT3=
EXTT4=
EXTT5=
EXTT6=
EXTT7=
EXTT8=
EXTT9=
EXTT10=
PLAYORDER=
